<?xml version="1.0" encoding="UTF-8" ?>
<!DOCTYPE svg PUBLIC "-//W3C//DTD SVG 1.1//EN" "http://www.w3.org/Graphics/SVG/1.1/DTD/svg11.dtd">
<svg width="254pt" height="65pt" viewBox="0 0 254 65" version="1.1" xmlns="http://www.w3.org/2000/svg">
<g id="#ffffffff">
<path fill="#ffffff" opacity="1.00" d=" M 216.30 0.39 C 221.38 1.81 225.71 5.04 228.67 9.38 C 232.16 9.56 235.80 9.53 239.05 11.01 C 242.45 12.70 245.09 16.21 244.47 20.16 C 238.14 20.49 231.84 19.88 225.54 19.62 C 226.90 19.13 228.26 18.64 229.63 18.14 C 229.09 18.07 228.01 17.94 227.47 17.87 C 230.39 16.29 233.00 14.22 235.36 11.89 C 229.59 12.48 224.29 14.91 219.11 17.34 C 219.43 19.02 219.74 20.70 220.02 22.38 L 220.45 21.48 C 222.84 21.36 225.25 20.78 227.65 21.17 C 229.43 22.55 231.10 24.22 232.08 26.28 C 233.24 29.14 230.42 31.36 229.06 33.52 C 232.69 33.58 236.39 33.18 239.97 33.98 C 243.40 35.16 245.65 38.40 246.82 41.69 C 240.99 41.58 234.37 42.26 229.34 38.77 C 227.55 37.78 225.50 36.25 223.38 37.28 C 219.18 39.14 216.68 43.26 214.57 47.13 C 215.84 46.80 217.11 46.48 218.36 46.10 C 222.42 45.13 225.85 42.18 229.97 41.65 C 234.14 42.85 237.76 46.63 238.81 50.84 C 236.45 54.90 231.53 58.01 232.76 63.39 C 228.97 62.30 225.00 62.16 221.12 62.73 C 220.55 63.30 219.41 64.43 218.85 65.00 L 217.07 65.00 C 212.81 61.70 211.58 56.28 211.16 51.19 C 208.59 52.83 206.13 55.10 203.00 55.44 C 199.04 55.11 196.70 51.36 194.48 48.51 C 194.94 48.13 195.88 47.37 196.34 47.00 C 196.69 47.77 197.38 49.32 197.72 50.09 C 203.38 49.47 207.58 45.32 211.68 41.79 C 206.81 41.24 201.93 41.81 197.59 44.17 C 199.01 42.67 200.51 41.25 201.97 39.78 C 199.71 40.57 197.53 41.53 195.32 42.43 C 197.58 39.95 200.02 37.65 202.55 35.47 C 204.61 34.31 207.12 34.60 209.40 34.37 C 207.18 32.26 207.91 29.28 208.53 26.64 C 212.32 25.27 216.11 22.92 216.28 18.40 C 216.41 17.92 216.67 16.95 216.80 16.47 C 214.07 16.95 210.96 16.83 208.75 18.76 C 205.19 21.78 202.80 25.89 200.22 29.71 C 197.80 26.84 198.15 22.16 200.10 19.09 C 201.86 16.47 202.06 13.28 202.75 10.29 C 204.54 11.93 206.18 13.72 207.74 15.59 C 211.36 13.07 215.52 11.56 219.74 10.38 C 218.47 7.09 217.18 3.80 216.30 0.39 M 214.64 33.88 C 215.93 33.81 217.22 33.72 218.51 33.63 C 219.39 32.31 220.29 31.00 221.14 29.66 C 218.94 31.01 216.79 32.44 214.64 33.88 M 215.82 50.56 C 216.62 52.58 217.55 54.54 218.68 56.39 C 222.54 56.28 226.25 54.42 228.28 51.07 L 229.05 50.89 C 228.96 50.23 228.80 48.90 228.71 48.24 C 224.57 49.74 220.21 50.41 215.82 50.56 Z" />
<path fill="#ffffff" opacity="1.00" d=" M 152.58 1.35 C 154.89 1.67 157.66 1.75 159.07 3.94 C 161.22 7.07 163.81 9.83 166.37 12.63 C 164.09 13.77 161.78 14.86 159.60 16.18 C 162.84 17.05 166.26 17.91 168.46 20.66 C 167.59 25.87 167.02 31.11 166.39 36.36 C 166.98 36.43 168.14 36.58 168.73 36.66 C 171.16 36.72 172.90 38.41 174.53 40.02 C 173.65 40.73 172.77 41.44 171.89 42.15 C 169.35 41.77 166.81 41.40 164.27 41.05 C 164.12 49.10 164.57 57.43 161.28 65.00 L 159.51 65.00 C 155.00 61.76 150.58 58.33 147.15 53.92 C 150.70 55.51 154.51 57.87 158.55 56.69 C 159.60 52.36 158.96 47.87 158.79 43.48 C 158.75 42.85 158.68 41.61 158.64 40.99 C 155.34 41.69 152.04 42.44 148.79 43.34 C 150.16 43.66 151.53 43.99 152.92 44.23 C 154.53 46.12 156.57 47.75 157.56 50.08 C 158.03 53.29 154.58 54.35 152.25 55.29 C 150.99 53.71 149.75 52.10 148.53 50.48 C 145.64 47.02 140.43 47.62 137.36 44.27 C 137.56 49.75 138.52 55.33 137.26 60.74 C 134.92 59.48 132.95 57.48 132.00 54.98 C 129.00 48.24 131.94 40.90 131.09 33.86 C 125.58 33.99 122.17 29.11 118.88 25.44 C 123.55 24.67 127.40 21.82 131.25 19.26 C 131.66 15.23 131.63 11.18 131.60 7.14 C 135.41 7.42 139.13 9.86 140.50 13.43 C 140.18 17.61 143.56 20.54 146.26 23.23 C 148.49 21.63 150.45 19.70 152.63 18.05 C 150.35 16.50 148.42 14.54 146.40 12.69 C 149.01 11.89 151.51 10.81 153.93 9.56 C 153.29 6.86 152.62 4.14 152.58 1.35 M 157.91 23.48 C 158.43 23.83 159.48 24.52 160.01 24.87 L 160.43 25.48 C 158.87 27.84 158.96 30.56 159.79 33.16 C 159.08 33.89 158.37 34.63 157.67 35.36 C 158.84 35.99 160.02 36.61 161.20 37.23 C 161.92 35.49 162.37 33.64 162.39 31.75 C 162.19 28.30 163.53 24.47 161.74 21.32 C 161.89 20.99 162.18 20.32 162.33 19.98 C 160.12 20.23 158.21 21.08 157.91 23.48 M 147.75 25.37 C 149.33 24.65 150.84 23.79 152.37 22.96 C 150.61 23.33 148.64 23.55 147.75 25.37 M 138.28 27.36 C 137.04 32.58 137.18 38.03 137.31 43.36 C 141.04 42.07 144.80 40.86 148.39 39.21 L 148.78 39.57 L 148.83 38.47 C 150.50 39.09 151.22 38.56 150.96 36.86 C 150.36 36.21 149.78 35.53 149.22 34.83 C 150.02 33.35 151.19 32.12 152.24 30.83 C 150.93 30.44 149.63 30.06 148.33 29.68 C 148.08 32.31 147.77 35.00 146.48 37.36 C 142.19 33.23 147.06 27.08 143.42 22.72 C 141.67 24.22 139.69 25.51 138.28 27.36 Z" />
<path fill="#ffffff" opacity="1.00" d=" M 166.56 4.83 C 170.94 5.46 175.10 7.76 177.66 11.43 C 177.74 12.36 177.77 13.29 177.76 14.22 C 175.81 14.49 173.29 16.29 171.76 14.26 C 168.63 12.03 169.03 7.65 166.56 4.83 Z" />
<path fill="#ffffff" opacity="1.00" d=" M 44.60 33.77 C 51.85 25.47 58.47 16.58 65.99 8.55 C 71.53 8.42 77.07 8.52 82.61 8.53 C 82.43 9.07 82.08 10.13 81.90 10.67 C 79.21 18.41 76.22 26.06 73.85 33.92 C 74.47 33.93 75.71 33.96 76.34 33.97 C 81.39 34.05 86.44 33.96 91.49 34.03 C 91.36 34.54 91.09 35.56 90.96 36.07 C 90.58 37.43 90.25 38.80 89.91 40.17 C 92.01 40.02 94.12 39.83 96.16 39.32 C 98.62 38.39 100.15 36.18 101.36 33.97 C 102.04 34.00 103.39 34.05 104.07 34.07 L 103.68 35.25 C 101.89 40.78 100.02 46.27 98.11 51.75 C 98.94 51.87 99.76 51.99 100.59 52.10 C 104.16 52.44 107.75 52.23 111.33 52.21 C 111.95 53.37 112.94 54.21 114.01 54.97 C 112.26 57.25 110.14 59.80 106.98 59.75 C 101.14 59.81 95.22 60.20 89.42 59.50 C 87.30 58.02 84.30 56.09 85.03 53.07 C 85.74 49.36 87.42 45.93 88.59 42.36 C 88.85 41.63 89.10 40.90 89.34 40.17 C 83.36 39.69 77.35 39.77 71.37 40.16 C 69.43 46.19 67.27 52.14 64.96 58.03 C 61.64 58.04 58.31 58.03 54.99 58.00 C 54.36 57.99 53.10 57.98 52.47 57.98 C 54.39 52.52 56.39 47.09 58.32 41.63 C 55.60 41.63 52.89 41.63 50.18 41.66 C 42.52 50.45 33.70 59.36 22.00 62.25 C 16.01 63.44 8.81 63.48 4.24 58.77 C 1.68 56.77 0.49 53.38 1.36 50.23 C 2.83 44.71 7.95 41.16 12.85 38.84 C 22.75 34.17 33.94 34.42 44.60 33.77 M 53.15 33.87 C 54.29 33.91 55.44 33.95 56.58 33.99 C 57.99 34.00 59.41 34.00 60.82 34.00 C 61.94 30.86 63.37 27.81 64.19 24.57 C 65.95 22.39 66.21 19.45 66.89 16.82 C 61.88 22.14 57.73 28.18 53.15 33.87 M 18.27 46.33 C 16.36 48.38 16.98 51.14 18.26 53.32 C 26.12 53.22 32.41 47.45 37.50 42.06 L 38.05 42.05 C 38.33 41.35 38.61 40.65 38.89 39.96 C 31.77 40.11 23.11 40.23 18.27 46.33 Z" />
<path fill="#ffffff" opacity="1.00" d=" M 96.33 12.18 C 102.94 9.20 111.09 15.08 111.40 21.99 C 111.18 28.97 101.98 32.10 96.77 28.26 C 94.07 26.29 91.20 23.65 91.06 20.07 C 90.78 16.60 93.25 13.51 96.33 12.18 Z" />
</g>
<g id="#cacacafb">
<path fill="#cacaca" opacity="1.00" d=" M 81.90 10.67 C 82.56 10.57 83.87 10.39 84.53 10.30 C 82.02 18.27 78.92 26.03 76.34 33.97 C 75.71 33.96 74.47 33.93 73.85 33.92 C 76.22 26.06 79.21 18.41 81.90 10.67 Z" />
<path fill="#cacaca" opacity="1.00" d=" M 219.11 17.34 C 224.29 14.91 229.59 12.48 235.36 11.89 C 233.00 14.22 230.39 16.29 227.47 17.87 C 224.64 18.00 220.89 17.84 220.45 21.48 L 220.02 22.38 C 219.74 20.70 219.43 19.02 219.11 17.34 Z" />
<path fill="#cacaca" opacity="1.00" d=" M 53.15 33.87 C 57.73 28.18 61.88 22.14 66.89 16.82 C 66.21 19.45 65.95 22.39 64.19 24.57 C 61.46 27.54 59.02 30.77 56.58 33.99 C 55.44 33.95 54.29 33.91 53.15 33.87 Z" />
<path fill="#cacaca" opacity="1.00" d=" M 208.75 18.76 C 210.96 16.83 214.07 16.95 216.80 16.47 C 216.67 16.95 216.41 17.92 216.28 18.40 C 209.21 19.60 205.63 26.51 202.13 31.98 C 201.65 31.41 200.69 30.28 200.22 29.71 C 202.80 25.89 205.19 21.78 208.75 18.76 Z" />
<path fill="#cacaca" opacity="1.00" d=" M 157.91 23.48 C 158.21 21.08 160.12 20.23 162.33 19.98 C 162.18 20.32 161.89 20.99 161.74 21.32 C 161.18 22.51 160.58 23.68 160.01 24.87 C 159.48 24.52 158.43 23.83 157.91 23.48 Z" />
<path fill="#cacaca" opacity="1.00" d=" M 168.46 20.66 C 170.83 25.68 168.99 31.38 168.73 36.66 C 168.14 36.58 166.98 36.43 166.39 36.36 C 167.02 31.11 167.59 25.87 168.46 20.66 Z" />
<path fill="#cacaca" opacity="1.00" d=" M 160.43 25.48 C 160.71 25.89 161.27 26.70 161.55 27.11 C 161.26 29.66 160.94 32.21 161.00 34.78 C 161.50 33.78 161.96 32.77 162.39 31.75 C 162.37 33.64 161.92 35.49 161.20 37.23 C 160.02 36.61 158.84 35.99 157.67 35.36 C 158.37 34.63 159.08 33.89 159.79 33.16 C 158.96 30.56 158.87 27.84 160.43 25.48 Z" />
<path fill="#cacaca" opacity="1.00" d=" M 148.33 29.68 C 149.63 30.06 150.93 30.44 152.24 30.83 C 151.19 32.12 150.02 33.35 149.22 34.83 C 149.78 35.53 150.36 36.21 150.96 36.86 C 149.53 36.39 148.81 36.93 148.83 38.47 L 148.78 39.57 L 148.39 39.21 C 147.75 38.60 147.10 38.00 146.48 37.36 C 147.77 35.00 148.08 32.31 148.33 29.68 Z" />
<path fill="#cacaca" opacity="1.00" d=" M 98.11 51.75 C 100.02 46.27 101.89 40.78 103.68 35.25 C 104.30 35.55 105.54 36.16 106.16 36.46 C 104.23 41.64 102.43 46.88 100.59 52.10 C 99.76 51.99 98.94 51.87 98.11 51.75 Z" />
<path fill="#cacaca" opacity="1.00" d=" M 90.96 36.07 C 91.53 36.02 92.68 35.92 93.25 35.87 C 93.22 36.64 93.15 38.17 93.11 38.94 C 93.87 39.03 95.40 39.23 96.16 39.32 C 94.12 39.83 92.01 40.02 89.91 40.17 C 90.25 38.80 90.58 37.43 90.96 36.07 Z" />
<path fill="#cacaca" opacity="1.00" d=" M 214.57 47.13 C 216.68 43.26 219.18 39.14 223.38 37.28 C 225.50 36.25 227.55 37.78 229.34 38.77 C 227.69 38.96 226.03 39.05 224.41 39.42 C 222.10 41.35 220.20 43.73 218.36 46.10 C 217.11 46.48 215.84 46.80 214.57 47.13 Z" />
<path fill="#cacaca" opacity="1.00" d=" M 18.27 46.33 C 23.11 40.23 31.77 40.11 38.89 39.96 C 38.61 40.65 38.33 41.35 38.05 42.05 L 37.50 42.06 C 32.00 42.16 26.00 42.95 21.69 46.65 C 19.64 48.30 18.95 50.91 18.26 53.32 C 16.98 51.14 16.36 48.38 18.27 46.33 Z" />
<path fill="#cacaca" opacity="1.00" d=" M 71.37 40.16 C 77.35 39.77 83.36 39.69 89.34 40.17 C 89.10 40.90 88.85 41.63 88.59 42.36 C 83.85 41.22 78.89 41.85 74.06 41.82 C 70.92 47.41 69.49 54.02 67.00 60.00 C 62.86 60.00 58.71 60.00 54.57 60.00 C 54.67 59.50 54.88 58.50 54.99 58.00 C 58.31 58.03 61.64 58.04 64.96 58.03 C 67.27 52.14 69.43 46.19 71.37 40.16 Z" />
<path fill="#cacaca" opacity="1.00" d=" M 174.53 40.02 C 175.02 41.23 175.42 42.48 175.80 43.74 C 172.59 43.66 169.39 43.28 166.19 43.12 C 165.89 50.42 166.64 57.99 164.16 65.00 L 161.28 65.00 C 164.57 57.43 164.12 49.10 164.27 41.05 C 166.81 41.40 169.35 41.77 171.89 42.15 C 172.77 41.44 173.65 40.73 174.53 40.02 Z" />
<path fill="#cacaca" opacity="1.00" d=" M 148.79 43.34 C 152.04 42.44 155.34 41.69 158.64 40.99 C 158.68 41.61 158.75 42.85 158.79 43.48 C 156.83 43.73 154.89 44.06 152.92 44.23 C 151.53 43.99 150.16 43.66 148.79 43.34 Z" />
<path fill="#cacaca" opacity="1.00" d=" M 215.82 50.56 C 220.21 50.41 224.57 49.74 228.71 48.24 C 228.80 48.90 228.96 50.23 229.05 50.89 L 228.28 51.07 C 224.94 51.99 221.50 52.71 218.02 52.19 C 218.25 53.59 218.47 54.99 218.68 56.39 C 217.55 54.54 216.62 52.58 215.82 50.56 Z" />
</g>
</svg>
